<svg xmlns="http://www.w3.org/2000/svg" xmlns:xlink="http://www.w3.org/1999/xlink" width="156.36" height="100" xmlns:v="https://vecta.io/nano"><defs><linearGradient id="A" gradientUnits="userSpaceOnUse"><stop stop-color="#12ad2b" offset="0"/><stop stop-color="#6ab2e7" offset="1"/></linearGradient><linearGradient id="B" x1="1135.697" x2="1135.697" y1="861.13" y2="882.05" xlink:href="#A"/><linearGradient id="C" x1="1255.986" x2="1255.986" y1="738.102" y2="814.331" xlink:href="#A"/><linearGradient id="D" x1="1092.369" x2="1092.369" y1="802.632" y2="845.72" xlink:href="#A"/><linearGradient id="E" x1="1310.526" x2="1310.526" y1="670.295" y2="747.431" xlink:href="#A"/><linearGradient id="F" x1="1027.579" x2="1027.579" y1="818.915" y2="837.015" xlink:href="#A"/><linearGradient id="G" x1="1225.849" x2="1225.849" y1="598.791" y2="728.906" xlink:href="#A"/><linearGradient id="H" x1="1069.135" x2="1069.135" y1="537.553" y2="699.626" xlink:href="#A"/><linearGradient id="I" x1="939.817" x2="939.817" y1="226.787" y2="276.644" xlink:href="#A"/><linearGradient id="J" x1="1048.698" x2="1048.698" y1="469.419" y2="654.112" xlink:href="#A"/><linearGradient id="K" x1="1003.186" x2="1003.186" y1="191.772" y2="264.11" xlink:href="#A"/><linearGradient id="L" x1="926.267" x2="926.267" y1="317.584" y2="335.557" xlink:href="#A"/><linearGradient id="M" x1="1032.909" x2="1032.909" y1="371.016" y2="595.552" xlink:href="#A"/><linearGradient id="N" x1="1035.732" x2="1035.732" y1="165.405" y2="260.299" xlink:href="#A"/><linearGradient id="O" x1="923.617" x2="923.617" y1="344.556" y2="367.649" xlink:href="#A"/><linearGradient id="P" x1="1017.979" x2="1017.979" y1="277.608" y2="539.143" xlink:href="#A"/><linearGradient id="Q" x1="943.708" x2="943.708" y1="135.237" y2="298.479" xlink:href="#A"/><linearGradient id="R" x1="1004.765" x2="1004.765" y1="216.427" y2="496.626" xlink:href="#A"/><linearGradient id="S" x1="955.844" x2="955.844" y1="127.29" y2="316.402" xlink:href="#A"/><linearGradient id="T" x1="996.133" x2="996.133" y1="107.592" y2="433.547" xlink:href="#A"/><linearGradient id="U" x1="913.343" x2="913.343" y1="423.56" y2="468.836" xlink:href="#A"/><linearGradient id="V" x1="997.185" x2="997.185" y1="146.799" y2="434.269" xlink:href="#A"/><linearGradient id="W" x1="1011.732" x2="1011.732" y1="186.018" y2="434.998" xlink:href="#A"/><linearGradient id="X" x1="1026.309" x2="1026.309" y1="225.215" y2="435.717" xlink:href="#A"/><linearGradient id="Y" x1="1219.63" x2="1219.63" y1="296.957" y2="352.888" xlink:href="#A"/><linearGradient id="Z" x1="1036.378" x2="1036.378" y1="390.517" y2="490.781" xlink:href="#A"/><path id="a" d="M1211.042 476.58v-51.599h40.576v8.35h-29.773v12.964h27.539v8.35h-27.539v13.586h31.274v8.35z"/><path id="b" d="M1360.02 476.58l-4.578-13.184h-19.666l-4.578 13.184h-10.803l18.823-51.599h12.744l18.75 51.599zm-14.429-43.652l-.22.806q-.366 1.318-.879 3.003-.513 1.685-6.299 18.53h14.832l-5.09-14.832-1.575-4.981z"/><path id="c" d="M1192.438 569.58l-22.485-39.734q.659 5.786.659 9.302v30.432h-9.595v-51.599h12.341l22.815 40.063q-.659-5.53-.659-10.071V517.98h9.595v51.599z"/><path id="d" d="M1287.07 526.33v43.25h-10.803v-43.25h-16.663v-8.35h44.165v8.35z"/><path id="e" d="M1207.013 636.4q0 7.983-3.149 13.953-3.113 5.933-8.862 9.082-5.713 3.149-13.11 3.149h-20.874v-51.599h18.677q13.037 0 20.178 6.592 7.141 6.555 7.141 18.823zm-10.876 0q0-8.313-4.321-12.671-4.321-4.395-12.341-4.395h-7.654v34.9h9.155q6.958 0 11.06-4.797 4.102-4.797 4.102-13.037z"/></defs><g transform="matrix(.14703 0 0 .14703 -91.152 -29.137)"><g transform="matrix(.996 -.087 .087 .996 591.57 229.11)"><path d="m208.21 26.581a338.01 338.01 0 0 0-86.373 52.812l77.3 85.926a223.38 223.38 0 0 1 50.118-30.628z" fill="#003473"/><path d="M119.09 379.91a224.2 224.2 0 0 1-3.319-49.861l-115.1-11.4a339.52 339.52 0 0 0 4.735 81.742c1.155 6.415 2.513 12.739 4.019 19l111.4-30.911c-.619-2.838-1.216-5.688-1.735-8.57z" fill="#376121"/><path d="m31.532 197.44a339.4 339.4 0 0 0-28.456 97.181l115.05 11.395a224 224 0 0 1 16.528-56.373z" fill="#0066b1"/><path d="M330.3.082a339.71 339.71 0 0 0-99.512 17.925l41.04 108.09a224.2 224.2 0 0 1 57.726-10.41z" fill="#142047"/><path d="M354.44.241l-.745 115.61a223.04 223.04 0 0 1 57.651 11.252l42.468-107.51A338.08 338.08 0 0 0 354.44.247z" fill="#d90014"/><path d="m103.91 95.579a343.04 343.04 0 0 0-61.436 80.335l103.11 52.192a226.64 226.64 0 0 1 35.644-46.589z" fill="#65a51d"/><path d="m579.63 98.7-78.425 84.908a224.08 224.08 0 0 1 35.154 47.067l103.86-50.833a339.38 339.38 0 0 0-60.585-81.142z" fill="#2d8a28"/><path d="m510.87 485.94a225.23 225.23 0 0 1-43.586 39.317l60.227 98.706a340.88 340.88 0 0 0 75.142-67.8z" fill="#ffb700"/><path d="m412.32 672.47a338.31 338.31 0 0 0 94.579-35.917l-60.222-98.7a223.54 223.54 0 0 1-54.858 20.816z" fill="#810a19"/><path d="M368.06 562.98a223.37 223.37 0 0 1-58.674-.4l-22 113.52a338.26 338.26 0 0 0 101.17.648z" fill="#e54605"/><path d="m167.62 483.78-92.719 69.08a342.34 342.34 0 0 0 74.262 68.446l61.5-97.834a226.04 226.04 0 0 1-43.043-39.692z" fill="#f88e00"/><path d="m231.12 536.33-61.518 97.854a341.02 341.02 0 0 0 94.082 37.311l21.991-113.5a225.22 225.22 0 0 1-54.555-21.665z" fill="#d90067"/><path d="m127.3 411.75-111.43 30.917a337.46 337.46 0 0 0 44.572 90.853l92.7-69.067a222.9 222.9 0 0 1-25.846-52.703z" fill="#de7a00"/><path d="m476.26 28.5-42.469 107.52a226.46 226.46 0 0 1 49.661 31.223l78.413-84.89a343.09 343.09 0 0 0-85.605-53.851z" fill="#e79600"/></g><g transform="translate(-53.313 184.83)" opacity=".24"><path transform="translate(-119.92 -352.04)" d="m1150.4 867.18a256.61 256.61 0 0 1-31.165 7.988 3.462 3.462 0 0 0 0.643 6.862 3.505 3.505 0 0 0 0.652-0.062 263.57 263.57 0 0 0 32.009-8.2 3.4614 3.4614 0 0 0-2.139-6.584z" fill="url(#B)"/><path transform="translate(-171.17 -296.92)" d="M1289.8 760.42a259.66 259.66 0 0 1-71.349 47.29 3.46 3.46 0 1 0 2.819 6.322 266.58 266.58 0 0 0 73.257-48.554 3.46 3.46 0 1 0-4.727-5.058z" fill="url(#C)"/><path transform="translate(-81.609 -325.23)" d="m1142.7 816.67a3.458 3.458 0 0 0-4.619-1.617 243.85 243.85 0 0 1-93.1 23.744 3.461 3.461 0 0 0 0.184 6.917h0.189a250.73 250.73 0 0 0 95.732-24.42 3.461 3.461 0 0 0 1.614-4.624z" fill="url(#D)"/><path transform="translate(-202.81 -262.26)" d="m1337.1 693.06a245.81 245.81 0 0 1-57.376 47.937 3.461 3.461 0 1 0 3.577 5.926 252.67 252.67 0 0 0 58.99-49.288 3.461 3.461 0 0 0-5.191-4.577z" fill="url(#E)"/><path transform="translate(-56.121 -329.98)" d="M1063.1 826.66a3.46 3.46 0 0 0-4.152-2.591 238.41 238.41 0 0 1-53.63 6.023l-9.768-.192a3.46 3.46 0 1 0-.259 6.917 265.55 265.55 0 0 0 10.028.2 245.26 245.26 0 0 0 55.19-6.2 3.46 3.46 0 0 0 2.591-4.157z" fill="url(#F)"/><path transform="translate(-143.82 -233.25)" d="m1287.1 635.95a3.461 3.461 0 0 0-4.832 0.782 231.92 231.92 0 0 1-116.83 85.405 3.461 3.461 0 1 0 2.129 6.586 238.86 238.86 0 0 0 120.32-87.942 3.461 3.461 0 0 0-0.783-4.831z" fill="url(#G)"/><path transform="translate(-37.564 -206.44)" d="M1180.7 583.51a3.46 3.46 0 0 0-4.742 1.211 221 221 0 0 1-87.2 83.2 217.28 217.28 0 0 1-102 24.786 232.38 232.38 0 0 1-27.13-1.6 3.46 3.46 0 1 0-.811 6.874 239.12 239.12 0 0 0 27.941 1.644 224.12 224.12 0 0 0 105.22-25.579 227.92 227.92 0 0 0 89.942-85.8 3.46 3.46 0 0 0-1.217-4.736z" fill="url(#H)"/><path transform="translate(-21.105 -30.98)" d="M927.12 276.66a3.46 3.46 0 0 0 .754-.084 118.57 118.57 0 0 1 20.081-2.69 3.46 3.46 0 0 0 3.289-3.213 119.98 119.98 0 0 1 4.588-25.444 3.46 3.46 0 1 0-6.64-1.958 126.83 126.83 0 0 0-4.6 23.882 125.69 125.69 0 0 0-18.218 2.666 3.46 3.46 0 0 0 .748 6.84z" fill="url(#I)"/><path transform="translate(-23.727 -174.77)" d="M1071.7 630.11c42.866-22.49 76.257-58.454 96.563-104a3.46 3.46 0 1 0-6.322-2.819c-19.666 44.114-51.983 78.933-93.457 100.69a203.56 203.56 0 0 1-95.563 23.208 220.96 220.96 0 0 1-32.271-2.386c-2.473-.359-5.05-.837-7.662-1.42a3.46 3.46 0 1 0-1.509 6.756 110.89 110.89 0 0 0 8.167 1.514 227.85 227.85 0 0 0 33.275 2.46 210.42 210.42 0 0 0 98.779-24.006z" fill="url(#J)"/><path transform="translate(-57.17 -16.239)" d="m997.35 264.12h0.122a3.462 3.462 0 0 0 3.457-3.341 106.03 106.03 0 0 1 11.049-43.753 3.461 3.461 0 0 0-6.2-3.076 112.92 112.92 0 0 0-11.765 46.589 3.461 3.461 0 0 0 3.337 3.581z" fill="url(#K)"/><path transform="translate(-11.521 -72.942)" d="M908.43 335.56a3.45 3.45 0 0 0 1.134-.192 105.18 105.18 0 0 1 34.542-5.817 3.46 3.46 0 1 0 0-6.922 112.06 112.06 0 0 0-36.81 6.2 3.46 3.46 0 0 0 1.134 6.732z" fill="url(#L)"/><path transform="translate(-13.108 -130.05)" d="m962.31 595.55a196.78 196.78 0 0 0 92.356-22.409c49.459-25.965 86.263-72.851 101.67-129.23 0.773-2.78 3.082-8.048-0.529-9.616a3.475 3.475 0 0 0-4.734 2.343c-13.973 56.95-50.286 104.47-99.625 130.37a189.93 189.93 0 0 1-89.139 21.616 208.69 208.69 0 0 1-30.24-2.233 93.928 93.928 0 0 1-19.32-4.979 3.4614 3.4614 0 0 0-2.439 6.479 100.98 100.98 0 0 0 20.749 5.349 215.72 215.72 0 0 0 31.249 2.305z" fill="url(#M)"/><path transform="translate(-71.657 -6.014)" d="m1022.3 256.93a3.461 3.461 0 0 0 3.458 3.371h0.092a3.461 3.461 0 0 0 3.37-3.55 93.652 93.652 0 0 1 19.17-59.1 3.461 3.461 0 1 0-5.5-4.2 100.6 100.6 0 0 0-20.59 63.479z" fill="url(#N)"/><path transform="translate(-4.906 -87.508)" d="m892.34 365.54a3.474 3.474 0 0 0 4.708 1.766 91.807 91.807 0 0 1 40.448-9.343 93.844 93.844 0 0 1 13.684 1 3.4613 3.4613 0 1 0 1.013-6.848 100.81 100.81 0 0 0-14.7-1.075 98.672 98.672 0 0 0-43.289 9.949 3.482 3.482 0 0 0-1.864 4.551z" fill="url(#O)"/><path transform="translate(-5.564 -87.477)" d="m954.76 539.14a183.07 183.07 0 0 0 85.917-20.83c59.081-31.007 97.187-92.177 101.94-163.63a3.4612 3.4612 0 0 0-6.907-0.46c-4.588 69.032-41.315 128.08-98.245 157.96a176.21 176.21 0 0 1-82.7 20.038 194.58 194.58 0 0 1-28.219-2.082 79.189 79.189 0 0 1-28.006-9.682 3.4611 3.4611 0 1 0-3.452 6 86.128 86.128 0 0 0 30.447 10.53 201.64 201.64 0 0 0 29.228 2.156z" fill="url(#P)"/><path transform="translate(-1.079 -.364)" d="m888.07 298.48a3.445 3.445 0 0 0 1.908-0.577 79.2 79.2 0 0 1 55.348-12.392 33.476 33.476 0 0 0 4.928 0.369 19.147 19.147 0 0 0 8.75-1.793c7.035-3.69 13.925-16.329 13.482-33.347a79.226 79.226 0 0 1 29.072-63.539 3.461 3.461 0 1 0-4.4-5.343 86.105 86.105 0 0 0-31.591 69.06c0.387 14.91-5.484 24.787-9.775 27.038a12.069 12.069 0 0 1-5.537 1 26.524 26.524 0 0 1-3.92-0.3 86.051 86.051 0 0 0-60.178 13.471 3.462 3.462 0 0 0 1.915 6.347z" fill="url(#Q)"/><path transform="translate(-1.122 -58.806)" d="M950.32 496.62a169.33 169.33 0 0 0 79.48-19.238c60.509-31.75 96.9-97.718 94.966-172.16-.054-2.245-.221-4.538-.509-7.007a3.46 3.46 0 0 0-6.91.307 3.39 3.39 0 0 0 .024.406 69 69 0 0 1 .475 6.468c1.862 71.785-33.107 135.34-91.262 165.85a162.48 162.48 0 0 1-76.264 18.447 178.47 178.47 0 0 1-26.188-1.943 65.32 65.32 0 0 1-33.7-15.526 3.46 3.46 0 0 0-4.568 5.2 72.22 72.22 0 0 0 37.256 17.169 185.33 185.33 0 0 0 27.2 2.02z" fill="url(#R)"/><path transform="translate(-.001)" d="m885.96 316.4a3.451 3.451 0 0 0 2.336-0.908 65.293 65.293 0 0 1 53.932-16.641 47.82 47.82 0 0 0 6.943 0.507 32.276 32.276 0 0 0 15.187-3.385c13.033-6.828 21.422-25.3 20.875-45.959a66.044 66.044 0 0 1 41.827-62.975 3.461 3.461 0 1 0-2.525-6.445 72.985 72.985 0 0 0-46.221 69.6c0.479 18.085-6.421 34.018-17.177 39.653a25.488 25.488 0 0 1-11.966 2.591 40.833 40.833 0 0 1-5.928-0.433 72.217 72.217 0 0 0-59.62 18.383 3.461 3.461 0 0 0 2.337 6.014z" fill="url(#S)"/><path transform="translate(0 -9.584)" d="m924.02 431.69a173.12 173.12 0 0 0 25.175 1.865 155.64 155.64 0 0 0 73.056-17.66c55.793-29.276 89.338-90.405 87.545-159.54a58.324 58.324 0 0 0-18.594-41.564l-0.479-0.465-0.1-0.047a57.7 57.7 0 0 0-17.263-10.885c-0.846-0.342-1.706-0.66-2.571-0.964l-0.581-0.282h-0.254a59.02 59.02 0 0 0-19-3.1c-0.47 0-0.94 0-1.517 0.015a58.926 58.926 0 0 0-57.291 60.352c0.616 23.6-9.035 44.118-24.591 52.276a37.278 37.278 0 0 1-14.032 3.977 3.4613 3.4613 0 0 0 0.628 6.894 44.143 44.143 0 0 0 16.62-4.742c17.874-9.373 28.98-32.369 28.294-58.585a52 52 0 0 1 50.55-53.253c0.506-0.013 0.906-0.01 1.339-0.012a52.093 52.093 0 0 1 17.142 2.856 122.28 122.28 0 0 1 18.429 11.075 51.539 51.539 0 0 1 16.345 36.634c1.724 66.472-30.4 125.18-83.842 153.22a148.79 148.79 0 0 1-69.833 16.868 166.23 166.23 0 0 1-24.165-1.79 51.586 51.586 0 0 1-34.086-20.377c-0.731-0.992-1.428-2.006-2.074-3.013a3.461 3.461 0 1 0-5.828 3.734c0.726 1.133 1.51 2.272 2.338 3.4a58.461 58.461 0 0 0 38.64 23.103z" fill="url(#T)"/><path transform="translate(0 -131.2)" d="m884.09 468.29a3.46 3.46 0 0 0 4.783-1.038 52.558 52.558 0 0 1 43.716-24.064 51.715 51.715 0 0 1 7.615 0.557 3.461 3.461 0 1 0 1.022-6.846 58.728 58.728 0 0 0-58.174 26.609 3.461 3.461 0 0 0 1.038 4.782z" fill="url(#U)"/><path transform="translate(-5.382 -24.149)" d="m979.39 338.52a52.87 52.87 0 0 1-24.833 5.763 68.589 68.589 0 0 1-9.984-0.74 44.97 44.97 0 0 0-51.085 37.945 44.989 44.989 0 0 0 37.939 51.074 158.98 158.98 0 0 0 23.153 1.709 141.9 141.9 0 0 0 66.62-16.068c51.09-26.808 81.8-83.1 80.141-146.92a44.755 44.755 0 0 0-44.995-43.823c-0.363 0-0.728 0-1.153 0.015a45.052 45.052 0 0 0-43.811 46.147c0.753 28.833-11.805 54.306-31.992 64.896zm38.913-65.074a38.122 38.122 0 0 1 37.065-39.049c0.359-8e-3 0.67-0.012 0.98-0.012a37.871 37.871 0 0 1 38.075 37.081c1.588 61.158-27.7 115.04-76.438 140.61a135.04 135.04 0 0 1-63.4 15.274 152.03 152.03 0 0 1-22.143-1.635 38.066 38.066 0 0 1-32.1-43.217 38.047 38.047 0 0 1 43.225-32.107 75.553 75.553 0 0 0 11 0.814 59.714 59.714 0 0 0 28.049-6.555c22.495-11.806 36.507-39.756 35.684-71.202z" fill="url(#V)"/><path transform="translate(-19.95 -38.714)" d="m957.12 371.8a31.125 31.125 0 0 0-35.365 26.27 31.145 31.145 0 0 0 26.266 35.358 145.11 145.11 0 0 0 21.131 1.561 126.54 126.54 0 0 0 87.42-33.734 3.4611 3.4611 0 0 0-4.7-5.082 119.62 119.62 0 0 1-82.721 31.894 138.28 138.28 0 0 1-20.121-1.486 24.225 24.225 0 0 1-20.428-27.5 24.2 24.2 0 0 1 27.506-20.431 89.629 89.629 0 0 0 13.019 0.963 73.4 73.4 0 0 0 34.482-8.14c27.139-14.239 44.06-47.142 43.1-83.822a24.259 24.259 0 0 1 23.595-24.851c0.219 0 0.42-7e-3 0.62-7e-3a24.1 24.1 0 0 1 24.235 23.6c0.97 37.374-10.552 72.32-32.443 98.4a3.461 3.461 0 0 0 5.3 4.451c22.979-27.378 35.074-63.969 34.06-103.03a30.986 30.986 0 0 0-31.155-30.339c-0.254 0-0.51 0-0.794 0.011a31.188 31.188 0 0 0-30.33 31.947c0.886 34.065-14.579 64.491-39.4 77.514a66.544 66.544 0 0 1-31.266 7.348 82.67 82.67 0 0 1-12.011-0.892z" fill="url(#W)"/><path transform="translate(-34.517 -53.279)" d="m1021.4 392.16c-19.078 10.014-38.662 9.821-51.731 7.9a17.304 17.304 0 1 0-5.051 34.238 131.25 131.25 0 0 0 19.108 1.412 114.46 114.46 0 0 0 53.755-12.9c41.676-21.867 66.708-68.491 65.327-121.68a17.306 17.306 0 0 0-34.6 0.9c1.022 39.295-17.351 74.674-46.808 90.129zm53.728-90.311a10.384 10.384 0 0 1 20.761-0.54c1.312 50.531-22.3 94.738-61.623 115.37a107.61 107.61 0 0 1-50.54 12.106 124.32 124.32 0 0 1-18.1-1.338 10.384 10.384 0 0 1 1.488-20.656 10.586 10.586 0 0 1 1.543 0.114c14.087 2.074 35.23 2.264 55.958-8.614 31.776-16.672 51.603-54.528 50.513-96.442z" fill="url(#X)"/><path transform="translate(-170.22 -67.845)" d="m1217.2 352.79a3.455 3.455 0 0 0 4.14-2.61 138.2 138.2 0 0 0 3.31-34.12 3.461 3.461 0 1 0-6.919 0.18 131.35 131.35 0 0 1-3.142 32.409 3.462 3.462 0 0 0 2.611 4.141z" fill="url(#Y)"/><path transform="translate(-49.085 -122.2)" d="m982.21 482.67a3.461 3.461 0 1 0-1.01 6.847 117.41 117.41 0 0 0 17.078 1.262 101.26 101.26 0 0 0 47.333-11.312c21.624-11.345 38.945-31.245 48.774-56.033a3.461 3.461 0 1 0-6.434-2.551c-9.219 23.249-25.4 41.879-45.556 52.455-22.391 11.747-45.086 11.559-60.185 9.332z" fill="url(#Z)"/></g><path d="M985.443 357.997c5.161 1.289 8.517 2.253 13.433 5.167 4.116 2.525 7.365 6.244 9.315 10.661 1.206 2.969 2.659 6.149 5.125 8.569l.442 3.2c-2.752-2.009-5.806-3.566-9.048-4.613-5.84-2.012-9.839-7.2-11.829-11.141s-2.707-7.837-7.438-11.845zm-7.336 6.471a13.8 13.8 0 0 1 3.855.623c5.552 1.7 7.7 5.317 10.008 7.537l-27.708-4.372a28.9 28.9 0 0 0 5.581-1.576c2.033-.834 4.71-2.265 8.264-2.213zm32.687 5.225c5.194 4.672 7.82 4.981 13.324 8.939s7.887 7.033 9.889 13.573 4.07 7.954 6.729 11.071l.209 3.566a44.4 44.4 0 0 0-11.445-7.579c-6.691-2.989-9.848-6.965-12.368-13.293s-2.11-9.523-6.339-16.278zm25.952 18.65c6.465 5.815 10.016 6.757 15.744 10.285s10.378 9.875 12.87 18.015-.106 9.859 5.646 20.2l-3.244 1.061s-2.065-5.551-8.806-10.853-10.875-8.822-14.6-18.175-.943-11.292-7.611-20.538zm33.535 30.218c4.945 7.569 9.006 7.252 15.075 13.643a34.39 34.39 0 0 1 9 22.434c.283 7.664-2.108 10.925-.37 22.543l-4.825-.2s-.846-7.954-5.313-13.893a53.96 53.96 0 0 1-10.461-22.186c-1.937-9.369.185-12.888-3.1-22.344zm34.079 33.425c2.36 10 5.124 13.859 7.65 19.623s4.141 17.526 1.065 27.118-6.456 9.735-7.853 23.662l-4.183-1.358s1.741-6.787-1.235-16.47-4.914-16.21-3.162-28.34 7.574-12.858 7.718-24.237zm17.039 47.791c.427 11.979 2.714 17.024 4.295 24.195s.75 21-4.955 31.287-9.6 9.685-14.372 25.314l-4.481-2.5s3.537-7.377 2.335-19.134-1.938-19.668 2.828-33.16 11.6-13.008 14.352-26zm6.22 60.632c1.7 7.529 1.141 16.662.326 23.959s-5.665 20.015-15.391 28.844-13.434 6.693-21.765 17.36l-2.823-5.61s6.221-3.336 8.873-14.855 3.93-17.544 12.794-28.8 14.048-10.885 17.986-20.9zm-1.742 50.194c-.368 10.283-1.761 15.1-5.1 21.646s-13.908 17.186-26.13 22.033-19.27 4-26.879 7.788l.2-4.9s4.755-2.214 10.719-10.5 12.192-14.85 23.492-20.594 15.318-6.222 23.7-15.478zm-47.661 52.558c12.345.036 19.368 2.738 30.613 1.008-9.8 5.371-10.213 7.051-17.274 12.058s-19.27 7.727-33.061 6.094c-13.913-1.647-20.572 2.208-20.572 2.208l-1.407-3.014a73.77 73.77 0 0 1 13.035-9.162c7.487-4.079 16.321-9.228 28.665-9.192zm-38.9 23.062a69.25 69.25 0 0 1 7.2.419c13.274 1.46 16.919 3.723 29 .575-12.393 4.857-12.1 7.543-22.492 12.934s-27.367 6.456-36.154 4.952c-14.8-2.534-22.637-7.169-30.154-3.473-6.848 3.367-38.745 17.105-44.533 20.027h-16.6l54.136-23.446c7.508-3.199 20.487-3.364 31.76-6.926 9.16-2.894 17.8-5.113 27.838-5.061z" fill="#0c7739"/><g fill="#98ba3b"><path d="M964.257 368.257a48.1 48.1 0 0 0 10.12.1c6.99-.449 17.588 4.268 17.588 4.268-5.412 2.247-14.016 1.789-18.8-.262-3.765-1.612-8.9-4.11-8.9-4.11zm9.7 8.67c4.926 1.324 10.725-.361 17.186 1 6.766 1.429 10.086 4.575 14.235 6.921a60.45 60.45 0 0 0 8.613 3.9l.06 2.727s-4.282-1.821-11.61-1.629c-7.264.19-11.338-.371-16.249-2.315s-9.559-7.717-12.236-10.612zm17.79 16.06c8.362 2.663 12.685.685 20.1 2.609 7.765 2.015 12.512 5.362 17.2 8.3a117.18 117.18 0 0 0 11.815 6.122l-.835 2.6a50.25 50.25 0 0 0-15.447-2.862c-8.427-.166-13.118-1.029-18.7-3.543s-9.765-8.034-14.136-13.226zm23.874 18.965c10.915 1.728 14.914.126 24.057 4.451 9.576 4.53 13.344 11.864 18.691 16.833 3.256 3.021 6.711 5.822 10.34 8.383l-2.425 3.647s-3.674-5.831-14.666-8.145c-10.895-2.293-16.072-5.043-20.955-10.862s-9.78-12.676-15.042-14.308zm28.556 25.9c10.8 5.305 15.956 6.061 23.564 12.111 8.565 6.812 12.505 13.2 15.191 20.163a114.53 114.53 0 0 0 5.908 12.769l-2.43 1.267s-3.52-6.456-12.689-10.51c-9.089-4.018-13.673-8.91-17.442-14.693s-7.286-18.417-12.1-21.109zm15.035 31.783c11.113 9.478 15.3 7.242 23.606 15.079 9.132 8.615 11.722 16.785 12.975 25.527a135.04 135.04 0 0 0 3.434 16.291l-3.141.825s-1.163-8.495-10.671-15.589c-9.424-7.032-14.605-13.769-17.421-21.435s-3.938-16.323-8.783-20.7zm9.943 33.369c9.789 12.2 14.646 10.684 21.813 20.6 7.878 10.9 9.259 20.667 9.059 30.261s.426 17.042.426 17.042l-3.474.239s-.148-9.174-8.727-18.544c-8.5-9.288-12.6-17.417-14.021-26.051s-.857-17.968-5.076-23.544zm3.944 35.125c8.253 13.75 15.334 18.079 19.809 28.105 4.919 11.022 3.917 24.139 1.425 32.789a72.82 72.82 0 0 0-2.823 14.422l-4.837 1.71a35.47 35.47 0 0 0-4.43-22.144c-6.365-10.733-8.842-21.492-8.422-31.114s2.563-16.815-.723-23.769zm-.283 41.321c3.509 12.4 9.708 18.6 10.9 32 1.314 14.724-5.432 25.087-10.6 32.468-2.893 3.946-5.169 8.309-6.752 12.939l-5.941.454s6.844-7.7 4.006-21.368c-2.813-13.552-2.175-24.8 1.349-33.766s7.886-15.084 7.036-22.724zm-12.333 38.113c-.809 11.055 1.313 20.269-1.407 30.506-2.99 11.253-10.867 20.215-18.249 25.4a48.5 48.5 0 0 0-10.771 9.873c-1.873-.667-3.792-1.198-5.741-1.589 0 0 9.064-4.914 11.068-18.731 1.987-13.7 7.289-24.642 13.97-30.142s9.571-8.89 11.129-15.316zm-23.706 32.664c-3.153 3.784-2.891 7.563-5.792 16.889s-13.341 21.247-24.615 24.809-16.768 3.092-24.278 6.291l-52.912 23.446h-12.713c5.789-2.921 54.373-23.852 61.22-27.22 7.517-3.7 10.428-8.822 16.965-15.981 5.394-5.908 17.094-15.443 23.913-18.981s13.775-5.723 18.212-9.254z"/><path d="M935.29 357.997c-5.161 1.289-8.517 2.253-13.433 5.167-4.116 2.525-7.365 6.244-9.315 10.661-1.206 2.969-2.66 6.149-5.125 8.569l-.442 3.2c2.752-2.009 5.806-3.566 9.048-4.613 5.84-2.012 9.839-7.2 11.829-11.141s2.707-7.837 7.438-11.845zm7.336 6.471a13.8 13.8 0 0 0-3.855.623c-5.552 1.7-7.7 5.317-10.008 7.537l27.708-4.372a28.9 28.9 0 0 1-5.581-1.576c-2.033-.834-4.71-2.265-8.264-2.213zm-32.687 5.225c-5.194 4.672-7.82 4.981-13.324 8.939s-7.883 7.034-9.889 13.574-4.07 7.954-6.729 11.071l-.209 3.566a44.4 44.4 0 0 1 11.444-7.579c6.691-2.989 9.848-6.965 12.368-13.293s2.11-9.523 6.339-16.278zm-25.952 18.65c-6.465 5.815-10.016 6.757-15.744 10.285s-10.378 9.875-12.87 18.015.106 9.859-5.646 20.2l3.244 1.061s2.065-5.551 8.806-10.853 10.875-8.822 14.6-18.175.943-11.292 7.61-20.538zm-33.535 30.219c-4.945 7.569-9.006 7.252-15.075 13.643a34.39 34.39 0 0 0-9 22.434c-.283 7.664 2.108 10.925.37 22.543l4.825-.2s.846-7.954 5.313-13.893a53.96 53.96 0 0 0 10.461-22.186c1.937-9.369-.185-12.888 3.1-22.344zm-34.079 33.425c-2.36 10-5.124 13.859-7.65 19.623s-4.141 17.526-1.065 27.118 6.456 9.735 7.852 23.662l4.183-1.358s-1.741-6.787 1.235-16.47 4.914-16.21 3.162-28.34-7.574-12.858-7.718-24.237zm-17.041 47.791c-.427 11.979-2.714 17.024-4.295 24.195s-.75 21 4.955 31.287 9.605 9.685 14.372 25.314l4.481-2.5s-3.537-7.377-2.335-19.134 1.938-19.668-2.828-33.16-11.6-13.008-14.352-26zm-6.22 60.632c-1.7 7.529-1.141 16.662-.326 23.959s5.665 20.015 15.391 28.844 13.434 6.693 21.765 17.36l2.823-5.61s-6.221-3.336-8.873-14.855-3.93-17.544-12.794-28.8-14.048-10.885-17.986-20.9zm1.742 50.194c.368 10.283 1.761 15.1 5.1 21.646s13.908 17.186 26.13 22.033 19.27 4 26.879 7.788l-.2-4.9s-4.755-2.214-10.719-10.5-12.192-14.85-23.492-20.594-15.318-6.222-23.7-15.478zm47.661 52.558c-12.345.037-19.368 2.738-30.613 1.008 9.8 5.371 10.213 7.051 17.274 12.058s19.27 7.727 33.061 6.094c13.913-1.647 20.572 2.208 20.572 2.208l1.407-3.014a73.77 73.77 0 0 0-13.034-9.166c-7.487-4.079-16.321-9.228-28.665-9.192zm38.9 23.062a69.15 69.15 0 0 0-7.2.419c-13.274 1.46-16.919 3.723-29 .575 12.393 4.857 12.1 7.543 22.492 12.934s27.367 6.456 36.154 4.952c14.8-2.534 22.637-7.169 30.154-3.473 6.848 3.367 38.745 17.105 44.533 20.027h16.6l-54.136-23.446c-7.508-3.199-20.487-3.364-31.76-6.926-9.16-2.894-17.8-5.113-27.838-5.061z"/></g><path d="M956.477 368.257a48.1 48.1 0 0 1-10.12.1c-6.99-.449-17.588 4.268-17.588 4.268 5.412 2.247 14.016 1.789 18.8-.262 3.764-1.612 8.9-4.11 8.9-4.11zm-9.7 8.67c-4.926 1.324-10.725-.361-17.186 1-6.766 1.429-10.086 4.575-14.235 6.921a60.45 60.45 0 0 1-8.613 3.9l-.061 2.727s4.282-1.821 11.61-1.629c7.264.19 11.338-.371 16.249-2.315s9.559-7.717 12.236-10.612zm-17.79 16.06c-8.362 2.663-12.685.685-20.1 2.609-7.765 2.015-12.512 5.362-17.2 8.3a117.18 117.18 0 0 1-11.815 6.122l.835 2.6a50.25 50.25 0 0 1 15.447-2.862c8.427-.166 13.118-1.029 18.7-3.543s9.765-8.034 14.136-13.226zm-23.874 18.965c-10.915 1.728-14.914.126-24.057 4.451-9.576 4.53-13.344 11.864-18.691 16.833a99.83 99.83 0 0 1-10.34 8.383l2.425 3.647s3.674-5.831 14.665-8.145c10.895-2.293 16.072-5.043 20.955-10.862s9.78-12.676 15.042-14.308zm-28.556 25.9c-10.8 5.305-15.956 6.061-23.564 12.111-8.562 6.816-12.503 13.206-15.192 20.168a114.54 114.54 0 0 1-5.9 12.769l2.43 1.267s3.52-6.456 12.689-10.51c9.089-4.018 13.673-8.91 17.442-14.693s7.286-18.417 12.1-21.109zm-15.032 31.787c-11.113 9.478-15.3 7.242-23.606 15.079-9.132 8.615-11.722 16.785-12.975 25.527a135.04 135.04 0 0 1-3.434 16.291l3.141.825s1.163-8.495 10.671-15.589c9.424-7.032 14.605-13.769 17.421-21.435s3.938-16.323 8.783-20.7zm-9.943 33.369c-9.789 12.2-14.646 10.684-21.813 20.6-7.878 10.9-9.259 20.667-9.059 30.261s-.426 17.042-.426 17.042l3.474.239s.148-9.174 8.727-18.544c8.5-9.288 12.6-17.417 14.021-26.051s.857-17.968 5.076-23.544zm-3.944 35.125c-8.252 13.746-15.337 18.079-19.808 28.106-4.919 11.022-3.918 24.14-1.429 32.789 1.425 4.7 2.371 9.532 2.823 14.422l4.837 1.71a35.47 35.47 0 0 1 4.43-22.144c6.365-10.733 8.842-21.492 8.422-31.114s-2.563-16.815.723-23.769zm.284 41.321c-3.509 12.4-9.708 18.6-10.9 32-1.321 14.725 5.43 25.087 10.598 32.468 2.893 3.946 5.169 8.309 6.752 12.939l5.941.454s-6.844-7.7-4.006-21.368c2.813-13.552 2.175-24.8-1.349-33.766s-7.886-15.084-7.036-22.724zm12.329 38.109c.809 11.055-1.313 20.269 1.407 30.506 2.99 11.253 10.867 20.215 18.249 25.4a48.51 48.51 0 0 1 10.771 9.873c1.873-.667 3.792-1.198 5.741-1.589 0 0-9.064-4.914-11.068-18.731-1.987-13.7-7.289-24.642-13.97-30.142s-9.57-8.89-11.129-15.316zm23.706 32.664c3.153 3.784 2.891 7.563 5.792 16.889s13.341 21.247 24.615 24.809 16.768 3.092 24.278 6.291l52.912 23.446h12.712c-5.789-2.921-54.373-23.852-61.22-27.22-7.517-3.7-10.428-8.822-16.965-15.981-5.394-5.908-17.094-15.443-23.913-18.981s-13.775-5.723-18.211-9.254z" fill="#0c7739"/><path d="M960.37 377.767l6.456 19.873h20.9l-16.909 12.281 6.457 19.873-16.9-12.282-16.9 12.282 6.457-19.873-16.913-12.282h20.9z" fill="#d40000"/><path d="M955.05 493.471v159.16c-3.049 2.286-4.293 6.266-3.089 9.881s4.588 6.054 8.398 6.054 7.194-2.439 8.398-6.054-.04-7.596-3.089-9.881v-159.16z" fill="#734215"/><path d="M960.36 491.096v159.75a8.8 8.8 0 0 1 5.311 1.783v-159.16z" fill="#4e2705"/><path d="M957.99 493.48h7.691v-13.16c2.1-1.05 8.03-7.64 4.617-20.086-4.411-16.085-9.927-33.246-9.927-33.246z" fill="#38699e"/><path d="M960.36 426.99s-5.517 17.161-9.928 33.246c-3.413 12.446 2.517 19.036 4.618 20.086v13.16h5.31z" fill="#7bb1c7"/><g transform="matrix(-1 0 0 -1 1006.39 603.71)"><g stroke="#734215" stroke-width=".265"><circle cx="46.009" cy="46.009" r="46.009" fill="#d1963b"/><circle cx="46.01" cy="46.01" r="36.765" fill="none"/></g><path d="M45.273 3.443l.39 4.49h.7l.385-4.49zm.161 9.279l.577 24.762.576-24.762zm.577 41.8l-.577 24.765h1.153zm-.348 29.555l-.39 4.49h1.475l-.39-4.49zm42.91-38.802l-4.49.39v.7l4.49.39zm-9.28.161l-24.761.577 24.761.576zm-41.805.577l-24.762-.577v1.153zm-29.551-.348l-4.49-.39v1.475l4.49-.39zm67.649-30.269l-2.9 3.451.492.492 3.451-2.9zm-6.448 6.675l-17.1 17.917 17.916-17.102zM39.987 52.04L22.069 69.141l.815.815zM18.845 72.689l-3.451 2.899 1.043 1.043 2.9-3.451zm57.785 2.905l-3.451-2.9-.492.492 2.9 3.451zm-6.675-6.448l-17.917-17.1 17.1 17.916zM39.986 39.995l-17.1-17.918-.815.815zM19.337 18.853l-2.899-3.451-1.043 1.043 3.451 2.9zM66.652 8.784l-1.908 4.083.6.348 2.585-3.694zm-4.5 8.117L50.27 38.633l12.88-21.156zM41.749 53.393L28.868 74.549l1 .577zM26.672 78.81l-2.583 3.694 1.277.737 1.908-4.083zm56.567-12.146l-4.083-1.908-.348.6 3.693 2.585zm-8.117-4.5L53.389 50.282l21.157 12.88zM38.63 41.761L17.474 28.88l-.577 1zM13.212 26.684l-3.694-2.583-.737 1.277 4.083 1.908zm73.721 7.601l-4.236 1.539.18.672 4.438-.786zm-8.923 2.557l-23.767 6.966 24.067-5.852zM37.782 48.22L13.71 54.071l.3 1.114zM9.148 55.531l-4.438.786.382 1.425 4.236-1.539zm48.589 31.414l-1.538-4.237-.672.18.786 4.438zm-2.556-8.923l-6.967-23.767 5.853 24.067zM43.803 37.794l-5.851-24.072-1.114.3zM36.491 9.16l-.785-4.438-1.425.382L35.82 9.34zm46.013 14.932l-3.694 2.583.348.6 4.083-1.908zm-7.956 4.779L53.393 41.752 75.125 29.87zm-35.915 21.4L16.901 62.154l.577 1zM12.867 64.747l-4.083 1.907.737 1.278 3.694-2.583zM67.93 82.5l-2.583-3.694-.6.348 1.908 4.083zm-4.779-7.956L50.27 53.389 62.152 75.12zm-21.4-35.915L29.867 16.897l-1 .577zM27.275 12.863L25.367 8.78l-1.277.737 2.583 3.694zm60.04 43.442l-4.438-.786-.18.672 4.236 1.539zm-9-2.246l-24.072-5.851 23.764 6.965zM37.778 43.797L14.007 36.83l-.3 1.114zM9.325 35.812l-4.236-1.539-.382 1.425 4.438.786zm26.38 51.49l.786-4.438-.672-.18-1.538 4.236zm2.246-9l5.852-24.072-6.965 23.765zm10.263-40.536l6.967-23.771-1.115-.3zm7.984-28.453l1.539-4.236-1.425-.382-.786 4.438z" fill="#734215"/><g fill="none" stroke="#734215" stroke-width=".265"><circle cx="46.01" cy="46.01" r="8.175"/><circle cx="46.009" cy="46.009" r="43.643"/><circle cx="46.009" cy="46.009" r="4.751"/></g></g><path d="M883.24 590.33l-2.894-146.8s19.888 40.092 27.149 58.4 5.051 37.882 2.21 51.773-8.573 29.4-9.47 41.039z" fill="#7bb1c7"/><path d="M907.77 639.952h-26.675c1.797-3.282 2.975-6.867 3.473-10.575l1.736-4.631 12.785.158 2.309 5.186a87.56 87.56 0 0 0 6.372 9.861z" fill="#4e2705"/><path d="M890.58 590.914l-2.1-97.318s9.945 15.639 13.807 25.377 3.175 22.822 1.175 32.585-5.876 24.763-6.227 41.088z" fill="#38699e"/><path d="M950.28 644.55v-32.145s-14.733 1.563-27.68-3.572c0 0-4.241-4.688-8.706-10.491s-5.914-5.7-10.748-6.762c-3.76-.825-11.164-2.114-13.532-2.588-1.488-.267-3.022-.103-4.42.474 0 0-3.946.631-5.367.631a.99.99 0 0 0-.789 1.736 4.12 4.12 0 0 0 2.052 3.788 5.28 5.28 0 0 0-2.683 4.262 7.1 7.1 0 0 0 1.578 5.209c-1.311 1.214-2.006 2.952-1.894 4.735a6.15 6.15 0 0 0 2.21 4.893 6.56 6.56 0 0 0-1.1 4.262c-.012 1.45.698 2.811 1.894 3.63a6.45 6.45 0 0 0 0 4.1c.789 1.894 1.578 2.368 3.473 2.683s3.63-.474 7.1 0c2.783.518 5.572-.877 6.826-3.415 0 0 1.228 1.9 2.9 4.13 0 0 5.246.223 8.371 0a9.57 9.57 0 0 0 4.857-1.555 86.54 86.54 0 0 1 16.907 6.465l18.751 9.524z" fill="#734215"/><path d="M886.25 590.78s-1.046.965-4.13 1a8.47 8.47 0 0 1-3.376-.509c.048.205.149.395.293.549 0 0 .851.518 3.753.63s3.46-1.674 3.46-1.674zm-6.976 2.156l-.135.033a4.39 4.39 0 0 0 1.949 2.644 19.27 19.27 0 0 0 9.043.793c2.588.888 5.34 1.191 8.059.888a20.54 20.54 0 0 1-7.659-2.7c-3.764 1.62-8.119.979-11.256-1.658zm19.578 5.15c1.327 1.024 1.984 2.694 1.711 4.348-.151 2.2-3.04 2.392-5.018 2.3-2.06-.136-4.126-.148-6.187-.037-3.464.512-6.682.057-8.5-.963a6.7 6.7 0 0 1-2.409-2.251 7.19 7.19 0 0 0 1.537 3.6c3.102.687 6.281.956 9.454.8a39.2 39.2 0 0 1 6.355-.167c1.306.198 2.528.766 3.523 1.635a5.39 5.39 0 0 1 1.846 1.855 4.21 4.21 0 0 1 .035 3.339 2.99 2.99 0 0 1-1.986 1.432c-1.236.016-2.472-.046-3.7-.186a28.81 28.81 0 0 0-6.678.221c-3.912.962-8.017.216-10.394-2.028a5.82 5.82 0 0 0 1.862 2.723 19.63 19.63 0 0 0 8.724.481c2.12-.318 4.27-.388 6.406-.209l2.755.179a6.32 6.32 0 0 1 2.353 2.527 3.94 3.94 0 0 1 .386 2.469 1.81 1.81 0 0 1-1.518 1.6c-.882.125-1.775.163-2.665.114-1.429-.013-3.163-.053-5 .028-2.078.2-6.636.511-9.873-.7-1.05-.461-1.964-1.184-2.655-2.1a4.35 4.35 0 0 0 1.876 3.5s7.036.652 10.705.493c1.792-.076 3.5-.051 4.939-.037.292 0 .419-.026.686-.026 1.341 2.331-1.7 4.625-2.972 5.225s-3.334-.184-4.518-.263-1.974-1.658-1.974-1.658c-.297.473-.355 1.057-.158 1.579a11.87 11.87 0 0 1-6.776-1.425c.025.072.038.145.067.216.789 1.894 1.58 2.368 3.474 2.683s3.629-.474 7.1 0c2.784.517 5.572-.878 6.827-3.416 0 0 1.228 1.9 2.9 4.13 0 0 5.246.223 8.371 0a9.57 9.57 0 0 0 4.856-1.55s2.016.5 5.078 1.525c-3.068-3.941-1.625-7.032-1.751-9.819 7.233 2.224 19.273 9.625 29.582 10.261-9.229-2.519-26.688-10.981-28.646-11.882s-4.034-4.193-5.986-4.437a8.89 8.89 0 0 1 2.151 4.673c.159 2.623-1.568 5.58-2.914 7.1-2.618 2.966-8.287 3.348-10.408 1.116-1.186-1.085-1.926-2.571-2.076-4.171 1.256-.265 2.224-1.267 2.444-2.532.211-1.12.028-2.279-.519-3.279-.472-.854-1.17-1.562-2.018-2.046a3.01 3.01 0 0 0 2.7-1.37c1.349 1.276 5.629 2.951 7.194 1.386-3.133-.2-5.62-.4-7.078-3.062.219-3.715-1.4-4.987-2.4-5.655-.363-.228-.741-.431-1.132-.607 1.8.062 2.749-2 2.76-3.4s-.969-3.952-2.748-4.269zm-2.886.3c-1.475.049-3.313.486-3.8 1.881-.529 1.123-.306 2.457.558 3.348 0 0-.335-3.237 1.674-4.13s4.911.446 4.911.446a5.82 5.82 0 0 0-1.451-1.339c-.612-.186-1.253-.256-1.89-.207zm-8.266.319a4.04 4.04 0 0 0-.893 3.013c.223 1.786 1.116 2.232 1.116 2.232s-1.004-3.237-.223-5.246zm9.313 9.373c-1.524-.072-3.146.435-3.286 1.9-.223 2.344.893 2.9.893 2.9s-.67-2.344.558-3.572 4.13-.558 4.13-.558a4.42 4.42 0 0 0-2.295-.672zm-9.089.114a5.18 5.18 0 0 0-.558 3.013c.223 1.674 1.116 2.344 1.116 2.121s-1.339-2.9-.558-5.134zm-.558 8.482a3.86 3.86 0 0 0-.335 2.455c.223 1.563.893 1.9.893 1.9s-1-3.125-.558-4.353zm8.552.042c-1.13-.042-2.358.237-2.748 1.521-.781 2.567 1 3.125 1 3.125-.415-.868-.532-1.848-.335-2.79.335-1.562 4.241-1.451 4.241-1.451a8.31 8.31 0 0 0-2.162-.4zm-2.19 6.766a2 2 0 0 0-2.121 1.786 2.44 2.44 0 0 0 2.121 2.679 2.13 2.13 0 0 1-1.339-1.786c-.223-1.451 1.451-2.344 2.79-2.344z" fill="#4e2705"/><path d="M883.46 638.738a22.35 22.35 0 0 0 2.718-7.631s4.557-1.4 5.837.748a46.71 46.71 0 0 0 5.016 6.883zm10.595-7.4a41.4 41.4 0 0 0 5.979 7.4h4.735a72.51 72.51 0 0 1-6.083-9.634s-.721 1.285-4.631 2.229z" fill="#734215"/><g transform="matrix(-1 0 0 -1 1042.65 644.55)"><path d="M5.158 54.221l-2.894 146.8s19.888-40.092 27.149-58.4 5.051-37.882 2.21-51.773-8.573-29.395-9.471-41.039z" fill="#7bb1c7"/><path d="M29.677 4.59H3.001c1.797 3.282 2.975 6.867 3.473 10.575l1.736 4.631 12.785-.158 2.306-5.187a87.56 87.56 0 0 1 6.375-9.861z" fill="#4e2705"/><path d="M12.494 53.635l-2.1 97.318s9.945-15.639 13.807-25.377 3.175-22.822 1.175-32.585-5.875-24.763-6.227-41.088z" fill="#38699e"/><path d="M72.189 0v32.144s-14.733-1.563-27.68 3.572c0 0-4.241 4.688-8.706 10.491s-5.914 5.7-10.748 6.762c-3.76.825-11.164 2.114-13.532 2.588a7.915 7.915 0 0 1-4.42-.474s-3.946-.631-5.367-.631a.988.988 0 0 1-.789-1.736A4.118 4.118 0 0 1 3 48.928a5.28 5.28 0 0 1-2.684-4.262 7.1 7.1 0 0 1 1.578-5.209A5.944 5.944 0 0 1 0 34.722a6.149 6.149 0 0 1 2.21-4.893 6.561 6.561 0 0 1-1.1-4.262A4.356 4.356 0 0 1 3 21.937a6.448 6.448 0 0 1 0-4.1c.789-1.894 1.578-2.368 3.473-2.683s3.63.474 7.1 0a6.324 6.324 0 0 1 6.827 3.411s1.228-1.9 2.9-4.13c0 0 5.246-.223 8.371 0a9.57 9.57 0 0 1 4.859 1.555 86.54 86.54 0 0 0 16.908-6.466L72.189 0z" fill="#734215"/><path d="M8.158 53.763s-1.046-.965-4.13-1a8.47 8.47 0 0 0-3.376.509c.048-.207.149-.397.293-.553 0 0 .851-.518 3.753-.63s3.46 1.674 3.46 1.674zm-6.976-2.156l-.137-.032a4.39 4.39 0 0 1 1.951-2.648 19.27 19.27 0 0 1 9.043-.793c2.588-.888 5.34-1.191 8.059-.888a20.54 20.54 0 0 0-7.659 2.7c-3.764-1.62-8.121-.977-11.257 1.661zm19.578-5.15c1.327-1.024 1.984-2.694 1.711-4.348-.151-2.2-3.04-2.392-5.018-2.3-2.06.136-4.126.148-6.187.037-3.464-.512-6.682-.057-8.5.963a6.7 6.7 0 0 0-2.412 2.248 7.19 7.19 0 0 1 1.537-3.6c3.102-.687 6.281-.956 9.454-.8a39.2 39.2 0 0 0 6.355.167c1.306-.198 2.528-.766 3.523-1.635a5.39 5.39 0 0 0 1.846-1.855 4.21 4.21 0 0 0 .035-3.339 2.99 2.99 0 0 0-1.986-1.432c-1.236-.016-2.472.046-3.7.186a28.81 28.81 0 0 1-6.678-.221c-3.914-.963-8.018-.217-10.395 2.026a5.82 5.82 0 0 1 1.862-2.727 19.63 19.63 0 0 1 8.724-.481c2.12.318 4.27.388 6.406.209l2.755-.179a6.32 6.32 0 0 0 2.353-2.523 3.94 3.94 0 0 0 .386-2.469 1.81 1.81 0 0 0-1.518-1.6c-.883-.125-1.777-.163-2.668-.114-1.429.013-3.163.053-5-.028-2.078-.2-6.636-.511-9.873.7-1.05.461-1.964 1.184-2.655 2.1a4.35 4.35 0 0 1 1.876-3.5c0 0 7.036-.652 10.705-.493 1.792.076 3.5.051 4.939.037.292 0 .419.026.686.026 1.341-2.331-1.7-4.625-2.972-5.225s-3.334.184-4.518.263-1.971 1.656-1.971 1.656c-.297-.473-.355-1.057-.158-1.579a11.87 11.87 0 0 0-6.776 1.425c.025-.072.038-.145.067-.216.79-1.894 1.58-2.368 3.474-2.683s3.629.474 7.1 0c2.784-.517 5.572.878 6.827 3.416 0 0 1.228-1.9 2.9-4.13 0 0 5.246-.223 8.371 0a9.57 9.57 0 0 1 4.857 1.556s2.016-.5 5.078-1.525c-3.068 3.941-1.625 7.032-1.751 9.819 7.236-2.225 19.277-9.626 29.585-10.262-9.228 2.519-26.691 10.981-28.646 11.882s-4.034 4.193-5.986 4.437a8.89 8.89 0 0 0 2.151-4.673c.159-2.623-1.568-5.58-2.914-7.1-2.617-2.97-8.286-3.353-10.407-1.121-1.186 1.086-1.926 2.574-2.076 4.175 1.256.265 2.224 1.267 2.444 2.532.211 1.12.028 2.279-.519 3.279-.472.854-1.17 1.562-2.018 2.046a3.01 3.01 0 0 1 2.7 1.37c1.349-1.276 5.629-2.951 7.194-1.386-3.133.2-5.62.4-7.078 3.062.219 3.715-1.4 4.987-2.4 5.655-.363.228-.741.431-1.132.607 1.8-.062 2.749 2 2.76 3.4s-.969 3.952-2.748 4.269zm-2.886-.3c-1.475-.049-3.313-.486-3.8-1.881-.529-1.123-.306-2.457.558-3.348 0 0-.335 3.237 1.674 4.13s4.911-.446 4.911-.446a5.82 5.82 0 0 1-1.451 1.339c-.612.186-1.253.256-1.89.207zm-8.266-.319a4.04 4.04 0 0 1-.892-3.011c.223-1.786 1.116-2.232 1.116-2.232s-1.005 3.232-.223 5.243zm9.313-9.373c-1.524.072-3.146-.435-3.286-1.9-.223-2.344.893-2.9.893-2.9s-.67 2.344.558 3.572 4.13.558 4.13.558a4.42 4.42 0 0 1-2.295.672zm-9.089-.114a5.18 5.18 0 0 1-.558-3.013c.223-1.674 1.116-2.344 1.116-2.121s-1.339 2.9-.558 5.134zm-.558-8.482a3.86 3.86 0 0 1-.335-2.455c.223-1.563.893-1.9.893-1.9s-1 3.125-.558 4.353zm8.552-.042c-1.13.042-2.358-.237-2.748-1.521-.781-2.567 1-3.125 1-3.125-.415.868-.532 1.848-.335 2.79.335 1.563 4.241 1.451 4.241 1.451a8.31 8.31 0 0 1-2.162.4zm-2.19-6.766a2 2 0 0 1-2.121-1.786 2.44 2.44 0 0 1 2.121-2.678 2.13 2.13 0 0 0-1.339 1.786c-.224 1.45 1.448 2.344 2.79 2.344z" fill="#4e2705"/><path d="M5.365 5.804a22.35 22.35 0 0 1 2.718 7.632c0 0 4.557 1.4 5.837-.748a46.71 46.71 0 0 1 5.011-6.884zm10.595 7.4a41.4 41.4 0 0 1 5.979-7.4h4.735a72.51 72.51 0 0 0-6.083 9.634c0 0-.72-1.285-4.626-2.229z" fill="#734215"/></g><g fill="#2d8a28"><path d="M1203.095 461.712q0 7.581-5.64 11.609-5.603 3.992-16.479 3.992-9.924 0-15.564-3.516-5.64-3.516-7.251-10.657l10.437-1.721q1.062 4.102 4.138 5.969 3.076 1.831 8.533 1.831 11.316 0 11.316-6.885 0-2.197-1.318-3.625-1.282-1.428-3.662-2.38-2.344-.952-9.045-2.307-5.786-1.355-8.057-2.161-2.271-.842-4.102-1.941-1.831-1.135-3.113-2.71-1.282-1.575-2.014-3.699-.696-2.124-.696-4.871 0-6.995 5.237-10.693 5.273-3.735 15.308-3.735 9.595 0 14.392 3.003 4.834 3.003 6.226 9.924l-10.474 1.428q-.806-3.332-3.296-5.017-2.454-1.685-7.068-1.685-9.814 0-9.814 6.152 0 2.014 1.025 3.296 1.062 1.282 3.113 2.197 2.051.879 8.313 2.234 7.434 1.575 10.62 2.93 3.223 1.318 5.09 3.113 1.868 1.758 2.856 4.248.989 2.454.989 5.676z"/><use xlink:href="#a"/><path d="M1303.91 476.58v-31.274q0-1.062 0-2.124.037-1.062.366-9.119-2.6 9.851-3.845 13.733l-9.302 28.784h-7.69l-9.302-28.784-3.918-13.733q.439 8.496.439 11.243v31.274h-9.595v-51.599h14.465l9.228 28.857.806 2.783 1.758 6.921 2.307-8.276 9.485-30.286h14.392v51.599z"/><use xlink:href="#b"/><path d="M1377.7 476.58v-51.599h10.803v51.599zm52.26 0l-22.485-39.734q.659 5.786.659 9.302v30.432h-9.595v-51.599h12.341l22.815 40.063q-.659-5.53-.659-10.071V424.98h9.595v51.599z"/><use xlink:href="#a" x="241.658"/><use xlink:href="#c"/><use xlink:href="#b" x="-108.366" y="93"/><use xlink:href="#d"/><path d="M1309.59 569.58v-51.599h10.803v51.599zm71.01-26.038q0 8.057-3.186 14.172-3.186 6.116-9.119 9.375-5.933 3.223-13.843 3.223-12.158 0-19.08-7.141-6.885-7.178-6.885-19.629 0-12.415 6.885-19.373 6.885-6.958 19.153-6.958 12.268 0 19.153 7.031 6.921 7.031 6.921 19.299zm-11.023 0q0-8.35-3.955-13.074-3.955-4.761-11.096-4.761-7.251 0-11.206 4.724-3.955 4.688-3.955 13.11 0 8.496 4.028 13.403 4.065 4.871 11.06 4.871 7.251 0 11.169-4.761 3.955-4.761 3.955-13.513z"/><use xlink:href="#c" x="227.742"/><use xlink:href="#b" x="119.38" y="93"/><path d="M1497.09 569.58v-51.599h10.803v43.25h27.686v8.35z"/><use xlink:href="#a" x="331.858" y="93"/><use xlink:href="#e"/><use xlink:href="#a" x="4.138" y="186"/><path d="M1286.04 662.58v-51.599h10.803v43.25h27.686v8.35zm53.76-32.89h-8.02l-.952-18.713h9.961zm9.89 32.89v-51.599h10.803v51.599z"/><use xlink:href="#e" x="209.507"/><use xlink:href="#a" x="213.648" y="186"/><path d="M1506.13 662.58l-22.485-39.734q.659 5.786.659 9.302v30.432h-9.595v-51.599h12.341l22.815 40.063q-.659-5.53-.659-10.071V610.98h9.595v51.599z"/><use xlink:href="#d" x="265.1" y="93"/><path d="M1574.69 662.58v-51.599h10.803v51.599z"/><use xlink:href="#d" x="331.75" y="93"/><path d="M1641.34 662.58v-51.599h40.576v8.35h-29.773v12.964h27.539v8.35h-27.539v13.586h31.274v8.35zm13.916-56.03v-1.135l9.229-9.302h9.448v1.575l-12.451 8.862z"/></g></g></svg>