<svg xmlns="http://www.w3.org/2000/svg" width="336.72" height="363.67" xmlns:v="https://vecta.io/nano"><path d="M193.403-.003c5.161 1.289 8.517 2.253 13.433 5.167 4.116 2.525 7.365 6.244 9.315 10.661 1.206 2.969 2.659 6.149 5.125 8.569l.442 3.2c-2.752-2.009-5.806-3.566-9.048-4.613-5.84-2.012-9.839-7.2-11.829-11.141s-2.707-7.837-7.438-11.845zm-7.336 6.471a13.8 13.8 0 0 1 3.855.623c5.552 1.7 7.7 5.317 10.008 7.537l-27.708-4.372a28.9 28.9 0 0 0 5.581-1.576c2.033-.834 4.71-2.265 8.264-2.213zm32.687 5.225c5.194 4.672 7.82 4.981 13.324 8.939s7.887 7.033 9.889 13.573 4.07 7.954 6.729 11.071l.209 3.566a44.4 44.4 0 0 0-11.445-7.579c-6.691-2.989-9.848-6.965-12.368-13.293s-2.11-9.523-6.339-16.278zm25.952 18.65c6.465 5.815 10.016 6.757 15.744 10.285s10.378 9.875 12.87 18.015-.106 9.859 5.646 20.2l-3.244 1.061s-2.065-5.551-8.806-10.853-10.875-8.822-14.6-18.175-.943-11.292-7.611-20.538zm33.535 30.218c4.945 7.569 9.006 7.252 15.075 13.643a34.39 34.39 0 0 1 9 22.434c.283 7.664-2.108 10.925-.37 22.543l-4.825-.2s-.846-7.954-5.313-13.893a53.96 53.96 0 0 1-10.461-22.186c-1.937-9.369.185-12.888-3.1-22.344zm34.079 33.425c2.36 10 5.124 13.859 7.65 19.623s4.141 17.526 1.065 27.118-6.456 9.735-7.853 23.662l-4.183-1.358s1.741-6.787-1.235-16.47-4.914-16.21-3.162-28.34 7.574-12.858 7.718-24.237zm17.039 47.791c.427 11.979 2.714 17.024 4.295 24.195s.75 21-4.955 31.287-9.6 9.685-14.372 25.314l-4.481-2.5s3.537-7.377 2.335-19.134-1.938-19.668 2.828-33.16 11.6-13.008 14.352-26zm6.22 60.632c1.7 7.529 1.141 16.662.326 23.959s-5.665 20.015-15.391 28.844-13.434 6.693-21.765 17.36l-2.823-5.61s6.221-3.336 8.873-14.855 3.93-17.544 12.794-28.8 14.048-10.885 17.986-20.9zm-1.742 50.194c-.368 10.283-1.761 15.1-5.1 21.646s-13.908 17.186-26.13 22.033-19.27 4-26.879 7.788l.2-4.9s4.755-2.214 10.719-10.5 12.192-14.85 23.492-20.594 15.318-6.222 23.7-15.478zm-47.661 52.558c12.345.036 19.368 2.738 30.613 1.008-9.8 5.371-10.213 7.051-17.274 12.058s-19.27 7.727-33.061 6.094c-13.913-1.647-20.572 2.208-20.572 2.208l-1.407-3.014a73.77 73.77 0 0 1 13.035-9.162c7.487-4.079 16.321-9.228 28.665-9.192zm-38.9 23.062a69.25 69.25 0 0 1 7.2.419c13.274 1.46 16.919 3.723 29 .575-12.393 4.857-12.1 7.543-22.492 12.934s-27.367 6.456-36.154 4.952c-14.8-2.534-22.637-7.169-30.154-3.473-6.848 3.367-38.745 17.105-44.533 20.027h-16.6l54.136-23.446c7.508-3.199 20.487-3.364 31.76-6.926 9.16-2.894 17.8-5.113 27.838-5.061z" fill="#0c7739"/><g fill="#98ba3b"><path d="M172.217 10.257a48.1 48.1 0 0 0 10.12.1c6.99-.449 17.588 4.268 17.588 4.268-5.412 2.247-14.016 1.789-18.8-.262-3.765-1.612-8.9-4.11-8.9-4.11zm9.7 8.67c4.926 1.324 10.725-.361 17.186 1 6.766 1.429 10.086 4.575 14.235 6.921a60.45 60.45 0 0 0 8.613 3.9l.06 2.727s-4.282-1.821-11.61-1.629c-7.264.19-11.338-.371-16.249-2.315s-9.559-7.717-12.236-10.612zm17.79 16.06c8.362 2.663 12.685.685 20.1 2.609 7.765 2.015 12.512 5.362 17.2 8.3a117.18 117.18 0 0 0 11.815 6.122l-.835 2.6a50.25 50.25 0 0 0-15.447-2.862c-8.427-.166-13.118-1.029-18.7-3.543s-9.765-8.034-14.136-13.226zm23.874 18.965c10.915 1.728 14.914.126 24.057 4.451 9.576 4.53 13.344 11.864 18.691 16.833 3.256 3.021 6.711 5.822 10.34 8.383l-2.425 3.647s-3.674-5.831-14.666-8.145c-10.895-2.293-16.072-5.043-20.955-10.862s-9.78-12.676-15.042-14.308zm28.556 25.9c10.8 5.305 15.956 6.061 23.564 12.111 8.565 6.812 12.505 13.2 15.191 20.163a114.53 114.53 0 0 0 5.908 12.769l-2.43 1.267s-3.52-6.456-12.689-10.51c-9.089-4.018-13.673-8.91-17.442-14.693s-7.286-18.417-12.1-21.109zm15.035 31.783c11.113 9.478 15.3 7.242 23.606 15.079 9.132 8.615 11.722 16.785 12.975 25.527a135.04 135.04 0 0 0 3.434 16.291l-3.141.825s-1.163-8.495-10.671-15.589c-9.424-7.032-14.605-13.769-17.421-21.435s-3.938-16.323-8.783-20.7zm9.943 33.369c9.789 12.2 14.646 10.684 21.813 20.6 7.878 10.9 9.259 20.667 9.059 30.261s.426 17.042.426 17.042l-3.474.239s-.148-9.174-8.727-18.544c-8.5-9.288-12.6-17.417-14.021-26.051s-.857-17.968-5.076-23.544zm3.944 35.125c8.253 13.75 15.334 18.079 19.809 28.105 4.919 11.022 3.917 24.139 1.425 32.789a72.82 72.82 0 0 0-2.823 14.422l-4.837 1.71a35.47 35.47 0 0 0-4.43-22.144c-6.365-10.733-8.842-21.492-8.422-31.114s2.563-16.815-.723-23.769zm-.283 41.321c3.509 12.4 9.708 18.6 10.9 32 1.314 14.724-5.432 25.087-10.6 32.468-2.893 3.946-5.169 8.309-6.752 12.939l-5.941.454s6.844-7.7 4.006-21.368c-2.813-13.552-2.175-24.8 1.349-33.766s7.886-15.084 7.036-22.724zm-12.333 38.113c-.809 11.055 1.313 20.269-1.407 30.506-2.99 11.253-10.867 20.215-18.249 25.4a48.5 48.5 0 0 0-10.771 9.873c-1.873-.667-3.792-1.198-5.741-1.589 0 0 9.064-4.914 11.068-18.731 1.987-13.7 7.289-24.642 13.97-30.142s9.571-8.89 11.129-15.316zm-23.706 32.664c-3.153 3.784-2.891 7.563-5.792 16.889s-13.341 21.247-24.615 24.809-16.768 3.092-24.278 6.291l-52.912 23.446h-12.713c5.789-2.921 54.373-23.852 61.22-27.22 7.517-3.7 10.428-8.822 16.965-15.981 5.394-5.908 17.094-15.443 23.913-18.981s13.775-5.723 18.212-9.254z"/><path d="M143.25-.003c-5.161 1.289-8.517 2.253-13.433 5.167-4.116 2.525-7.365 6.244-9.315 10.661-1.206 2.969-2.66 6.149-5.125 8.569l-.442 3.2c2.752-2.009 5.806-3.566 9.048-4.613 5.84-2.012 9.839-7.2 11.829-11.141s2.707-7.837 7.438-11.845zm7.336 6.471a13.8 13.8 0 0 0-3.855.623c-5.552 1.7-7.7 5.317-10.008 7.537l27.708-4.372a28.9 28.9 0 0 1-5.581-1.576c-2.033-.834-4.71-2.265-8.264-2.213zm-32.687 5.225c-5.194 4.672-7.82 4.981-13.324 8.939s-7.883 7.034-9.889 13.574-4.07 7.954-6.729 11.071l-.209 3.566a44.4 44.4 0 0 1 11.444-7.579c6.691-2.989 9.848-6.965 12.368-13.293s2.11-9.523 6.339-16.278zm-25.952 18.65c-6.465 5.815-10.016 6.757-15.744 10.285s-10.378 9.875-12.87 18.015.106 9.859-5.646 20.2l3.244 1.061s2.065-5.551 8.806-10.853 10.875-8.822 14.6-18.175.943-11.292 7.61-20.538zM58.412 60.562c-4.945 7.569-9.006 7.252-15.075 13.643a34.39 34.39 0 0 0-9 22.434c-.283 7.664 2.108 10.925.37 22.543l4.825-.2s.846-7.954 5.313-13.893a53.96 53.96 0 0 0 10.461-22.186c1.937-9.369-.185-12.888 3.1-22.344zM24.333 93.987c-2.36 10-5.124 13.859-7.65 19.623s-4.141 17.526-1.065 27.118 6.456 9.735 7.852 23.662l4.183-1.358s-1.741-6.787 1.235-16.47 4.914-16.21 3.162-28.34-7.574-12.858-7.718-24.237zM7.292 141.778c-.427 11.979-2.714 17.024-4.295 24.195s-.75 21 4.955 31.287 9.605 9.685 14.372 25.314l4.481-2.5s-3.537-7.377-2.335-19.134 1.938-19.668-2.828-33.16-11.6-13.008-14.352-26zm-6.22 60.632c-1.7 7.529-1.141 16.662-.326 23.959s5.665 20.015 15.391 28.844 13.434 6.693 21.765 17.36l2.823-5.61s-6.221-3.336-8.873-14.855-3.93-17.544-12.794-28.8-14.048-10.885-17.986-20.9zm1.742 50.194c.368 10.283 1.761 15.1 5.1 21.646s13.908 17.186 26.13 22.033 19.27 4 26.879 7.788l-.2-4.9s-4.755-2.214-10.719-10.5-12.192-14.85-23.492-20.594-15.318-6.222-23.7-15.478zm47.661 52.558c-12.345.037-19.368 2.738-30.613 1.008 9.8 5.371 10.213 7.051 17.274 12.058s19.27 7.727 33.061 6.094c13.913-1.647 20.572 2.208 20.572 2.208l1.407-3.014a73.77 73.77 0 0 0-13.034-9.166c-7.487-4.079-16.321-9.228-28.665-9.192zm38.9 23.062a69.15 69.15 0 0 0-7.2.419c-13.274 1.46-16.919 3.723-29 .575 12.393 4.857 12.1 7.543 22.492 12.934s27.367 6.456 36.154 4.952c14.8-2.534 22.637-7.169 30.154-3.473 6.848 3.367 38.745 17.105 44.533 20.027h16.6l-54.136-23.446c-7.508-3.199-20.487-3.364-31.76-6.926-9.16-2.894-17.8-5.113-27.838-5.061z"/></g><path d="M164.437 10.257a48.1 48.1 0 0 1-10.12.1c-6.99-.449-17.588 4.268-17.588 4.268 5.412 2.247 14.016 1.789 18.8-.262 3.764-1.612 8.9-4.11 8.9-4.11zm-9.7 8.67c-4.926 1.324-10.725-.361-17.186 1-6.766 1.429-10.086 4.575-14.235 6.921a60.45 60.45 0 0 1-8.613 3.9l-.061 2.727s4.282-1.821 11.61-1.629c7.264.19 11.338-.371 16.249-2.315s9.559-7.717 12.236-10.612zm-17.79 16.06c-8.362 2.663-12.685.685-20.1 2.609-7.765 2.015-12.512 5.362-17.2 8.3a117.18 117.18 0 0 1-11.815 6.122l.835 2.6a50.25 50.25 0 0 1 15.447-2.862c8.427-.166 13.118-1.029 18.7-3.543s9.765-8.034 14.136-13.226zm-23.874 18.965c-10.915 1.728-14.914.126-24.057 4.451-9.576 4.53-13.344 11.864-18.691 16.833a99.83 99.83 0 0 1-10.34 8.383l2.425 3.647s3.674-5.831 14.665-8.145c10.895-2.293 16.072-5.043 20.955-10.862s9.78-12.676 15.042-14.308zm-28.556 25.9c-10.8 5.305-15.956 6.061-23.564 12.111-8.562 6.816-12.503 13.206-15.192 20.168a114.54 114.54 0 0 1-5.9 12.769l2.43 1.267s3.52-6.456 12.689-10.51c9.089-4.018 13.673-8.91 17.442-14.693s7.286-18.417 12.1-21.109zm-15.032 31.787c-11.113 9.478-15.3 7.242-23.606 15.079-9.132 8.615-11.722 16.785-12.975 25.527a135.04 135.04 0 0 1-3.434 16.291l3.141.825s1.163-8.495 10.671-15.589c9.424-7.032 14.605-13.769 17.421-21.435s3.938-16.323 8.783-20.7zm-9.943 33.369c-9.789 12.2-14.646 10.684-21.813 20.6-7.878 10.9-9.259 20.667-9.059 30.261s-.426 17.042-.426 17.042l3.474.239s.148-9.174 8.727-18.544c8.5-9.288 12.6-17.417 14.021-26.051s.857-17.968 5.076-23.544zm-3.944 35.125c-8.252 13.746-15.337 18.079-19.808 28.106-4.919 11.022-3.918 24.14-1.429 32.789 1.425 4.7 2.371 9.532 2.823 14.422l4.837 1.71a35.47 35.47 0 0 1 4.43-22.144c6.365-10.733 8.842-21.492 8.422-31.114s-2.563-16.815.723-23.769zm.284 41.321c-3.509 12.4-9.708 18.6-10.9 32-1.321 14.725 5.43 25.087 10.598 32.468 2.893 3.946 5.169 8.309 6.752 12.939l5.941.454s-6.844-7.7-4.006-21.368c2.813-13.552 2.175-24.8-1.349-33.766s-7.886-15.084-7.036-22.724zm12.329 38.109c.809 11.055-1.313 20.269 1.407 30.506 2.99 11.253 10.867 20.215 18.249 25.4a48.51 48.51 0 0 1 10.771 9.873c1.873-.667 3.792-1.198 5.741-1.589 0 0-9.064-4.914-11.068-18.731-1.987-13.7-7.289-24.642-13.97-30.142s-9.57-8.89-11.129-15.316zm23.706 32.664c3.153 3.784 2.891 7.563 5.792 16.889s13.341 21.247 24.615 24.809 16.768 3.092 24.278 6.291l52.912 23.446h12.712c-5.789-2.921-54.373-23.852-61.22-27.22-7.517-3.7-10.428-8.822-16.965-15.981-5.394-5.908-17.094-15.443-23.913-18.981s-13.775-5.723-18.211-9.254z" fill="#0c7739"/><path d="M168.33 19.767l6.456 19.873h20.9l-16.909 12.281 6.457 19.873-16.9-12.282-16.9 12.282 6.457-19.873-16.913-12.282h20.9z" fill="#d40000"/><path d="M163.01 135.471v159.16c-3.049 2.286-4.293 6.266-3.089 9.881s4.588 6.054 8.398 6.054 7.194-2.439 8.398-6.054-.04-7.596-3.089-9.881v-159.16z" fill="#734215"/><path d="M168.32 133.096v159.75a8.8 8.8 0 0 1 5.311 1.783v-159.16z" fill="#4e2705"/><path d="M165.95 135.48h7.691v-13.16c2.1-1.05 8.03-7.64 4.617-20.086-4.411-16.085-9.927-33.246-9.927-33.246z" fill="#38699e"/><path d="M168.32 68.99s-5.517 17.161-9.928 33.246c-3.413 12.446 2.517 19.036 4.618 20.086v13.16h5.31z" fill="#7bb1c7"/><g transform="matrix(-1 0 0 -1 214.35 245.71)"><g stroke="#734215" stroke-width=".265"><circle cx="46.009" cy="46.009" r="46.009" fill="#d1963b"/><circle cx="46.01" cy="46.01" r="36.765" fill="none"/></g><path d="M45.273 3.443l.39 4.49h.7l.385-4.49zm.161 9.279l.577 24.762.576-24.762zm.577 41.8l-.577 24.765h1.153zm-.348 29.555l-.39 4.49h1.475l-.39-4.49zm42.91-38.802l-4.49.39v.7l4.49.39zm-9.28.161l-24.761.577 24.761.576zm-41.805.577l-24.762-.577v1.153zm-29.551-.348l-4.49-.39v1.475l4.49-.39zm67.649-30.269l-2.9 3.451.492.492 3.451-2.9zm-6.448 6.675l-17.1 17.917 17.916-17.102zM39.987 52.04L22.069 69.141l.815.815zM18.845 72.689l-3.451 2.899 1.043 1.043 2.9-3.451zm57.785 2.905l-3.451-2.9-.492.492 2.9 3.451zm-6.675-6.448l-17.917-17.1 17.1 17.916zM39.986 39.995l-17.1-17.918-.815.815zM19.337 18.853l-2.899-3.451-1.043 1.043 3.451 2.9zM66.652 8.784l-1.908 4.083.6.348 2.585-3.694zm-4.5 8.117L50.27 38.633l12.88-21.156zM41.749 53.393L28.868 74.549l1 .577zM26.672 78.81l-2.583 3.694 1.277.737 1.908-4.083zm56.567-12.146l-4.083-1.908-.348.6 3.693 2.585zm-8.117-4.5L53.389 50.282l21.157 12.88zM38.63 41.761L17.474 28.88l-.577 1zM13.212 26.684l-3.694-2.583-.737 1.277 4.083 1.908zm73.721 7.601l-4.236 1.539.18.672 4.438-.786zm-8.923 2.557l-23.767 6.966 24.067-5.852zM37.782 48.22L13.71 54.071l.3 1.114zM9.148 55.531l-4.438.786.382 1.425 4.236-1.539zm48.589 31.414l-1.538-4.237-.672.18.786 4.438zm-2.556-8.923l-6.967-23.767 5.853 24.067zM43.803 37.794l-5.851-24.072-1.114.3zM36.491 9.16l-.785-4.438-1.425.382L35.82 9.34zm46.013 14.932l-3.694 2.583.348.6 4.083-1.908zm-7.956 4.779L53.393 41.752 75.125 29.87zm-35.915 21.4L16.901 62.154l.577 1zM12.867 64.747l-4.083 1.907.737 1.278 3.694-2.583zM67.93 82.5l-2.583-3.694-.6.348 1.908 4.083zm-4.779-7.956L50.27 53.389 62.152 75.12zm-21.4-35.915L29.867 16.897l-1 .577zM27.275 12.863L25.367 8.78l-1.277.737 2.583 3.694zm60.04 43.442l-4.438-.786-.18.672 4.236 1.539zm-9-2.246l-24.072-5.851 23.764 6.965zM37.778 43.797L14.007 36.83l-.3 1.114zM9.325 35.812l-4.236-1.539-.382 1.425 4.438.786zm26.38 51.49l.786-4.438-.672-.18-1.538 4.236zm2.246-9l5.852-24.072-6.965 23.765zm10.263-40.536l6.967-23.771-1.115-.3zm7.984-28.453l1.539-4.236-1.425-.382-.786 4.438z" fill="#734215"/><g fill="none" stroke="#734215" stroke-width=".265"><circle cx="46.01" cy="46.01" r="8.175"/><circle cx="46.009" cy="46.009" r="43.643"/><circle cx="46.009" cy="46.009" r="4.751"/></g></g><path d="M91.2 232.33l-2.894-146.8s19.888 40.092 27.149 58.4 5.051 37.882 2.21 51.773-8.573 29.4-9.47 41.039z" fill="#7bb1c7"/><path d="M115.73 281.952H89.055c1.797-3.282 2.975-6.867 3.473-10.575l1.736-4.631 12.785.158 2.309 5.186a87.56 87.56 0 0 0 6.372 9.861z" fill="#4e2705"/><path d="M98.54 232.914l-2.1-97.318s9.945 15.639 13.807 25.377 3.175 22.822 1.175 32.585-5.876 24.763-6.227 41.088z" fill="#38699e"/><path d="M158.24 286.55v-32.145s-14.733 1.563-27.68-3.572c0 0-4.241-4.688-8.706-10.491s-5.914-5.7-10.748-6.762c-3.76-.825-11.164-2.114-13.532-2.588-1.488-.267-3.022-.103-4.42.474 0 0-3.946.631-5.367.631a.99.99 0 0 0-.789 1.736 4.12 4.12 0 0 0 2.052 3.788 5.28 5.28 0 0 0-2.683 4.262 7.1 7.1 0 0 0 1.578 5.209c-1.311 1.214-2.006 2.952-1.894 4.735a6.15 6.15 0 0 0 2.21 4.893 6.56 6.56 0 0 0-1.1 4.262c-.012 1.45.698 2.811 1.894 3.63a6.45 6.45 0 0 0 0 4.1c.789 1.894 1.578 2.368 3.473 2.683s3.63-.474 7.1 0c2.783.518 5.572-.877 6.826-3.415 0 0 1.228 1.9 2.9 4.13 0 0 5.246.223 8.371 0a9.57 9.57 0 0 0 4.857-1.555 86.54 86.54 0 0 1 16.907 6.465l18.751 9.524z" fill="#734215"/><path d="M94.21 232.78s-1.046.965-4.13 1a8.47 8.47 0 0 1-3.376-.509c.048.205.149.395.293.549 0 0 .851.518 3.753.63s3.46-1.674 3.46-1.674zm-6.976 2.156l-.135.033a4.39 4.39 0 0 0 1.949 2.644 19.27 19.27 0 0 0 9.043.793c2.588.888 5.34 1.191 8.059.888a20.54 20.54 0 0 1-7.659-2.7c-3.764 1.62-8.119.979-11.256-1.658zm19.578 5.15c1.327 1.024 1.984 2.694 1.711 4.348-.151 2.2-3.04 2.392-5.018 2.3-2.06-.136-4.126-.148-6.187-.037-3.464.512-6.682.057-8.5-.963a6.7 6.7 0 0 1-2.409-2.251 7.19 7.19 0 0 0 1.537 3.6c3.102.687 6.281.956 9.454.8a39.2 39.2 0 0 1 6.355-.167c1.306.198 2.528.766 3.523 1.635a5.39 5.39 0 0 1 1.846 1.855 4.21 4.21 0 0 1 .035 3.339 2.99 2.99 0 0 1-1.986 1.432c-1.236.016-2.472-.046-3.7-.186a28.81 28.81 0 0 0-6.678.221c-3.912.962-8.017.216-10.394-2.028a5.82 5.82 0 0 0 1.862 2.723 19.63 19.63 0 0 0 8.724.481c2.12-.318 4.27-.388 6.406-.209l2.755.179a6.32 6.32 0 0 1 2.353 2.527 3.94 3.94 0 0 1 .386 2.469 1.81 1.81 0 0 1-1.518 1.6c-.882.125-1.775.163-2.665.114-1.429-.013-3.163-.053-5 .028-2.078.2-6.636.511-9.873-.7-1.05-.461-1.964-1.184-2.655-2.1a4.35 4.35 0 0 0 1.876 3.5c0 0 7.036.652 10.705.493 1.792-.076 3.5-.051 4.939-.037.292 0 .419-.026.686-.026 1.341 2.331-1.7 4.625-2.972 5.225s-3.334-.184-4.518-.263-1.974-1.658-1.974-1.658c-.297.473-.355 1.057-.158 1.579a11.87 11.87 0 0 1-6.776-1.425c.025.072.038.145.067.216.789 1.894 1.58 2.368 3.474 2.683s3.629-.474 7.1 0c2.784.517 5.572-.878 6.827-3.416 0 0 1.228 1.9 2.9 4.13 0 0 5.246.223 8.371 0a9.57 9.57 0 0 0 4.856-1.55c0 0 2.016.5 5.078 1.525-3.068-3.941-1.625-7.032-1.751-9.819 7.233 2.224 19.273 9.625 29.582 10.261-9.229-2.519-26.688-10.981-28.646-11.882s-4.034-4.193-5.986-4.437a8.89 8.89 0 0 1 2.151 4.673c.159 2.623-1.568 5.58-2.914 7.1-2.618 2.966-8.287 3.348-10.408 1.116-1.186-1.085-1.926-2.571-2.076-4.171 1.256-.265 2.224-1.267 2.444-2.532.211-1.12.028-2.279-.519-3.279-.472-.854-1.17-1.562-2.018-2.046a3.01 3.01 0 0 0 2.7-1.37c1.349 1.276 5.629 2.951 7.194 1.386-3.133-.2-5.62-.4-7.078-3.062.219-3.715-1.4-4.987-2.4-5.655-.363-.228-.741-.431-1.132-.607 1.8.062 2.749-2 2.76-3.4s-.969-3.952-2.748-4.269zm-2.886.3c-1.475.049-3.313.486-3.8 1.881-.529 1.123-.306 2.457.558 3.348 0 0-.335-3.237 1.674-4.13s4.911.446 4.911.446a5.82 5.82 0 0 0-1.451-1.339c-.612-.186-1.253-.256-1.89-.207zm-8.266.319a4.04 4.04 0 0 0-.893 3.013c.223 1.786 1.116 2.232 1.116 2.232s-1.004-3.237-.223-5.246zm9.313 9.373c-1.524-.072-3.146.435-3.286 1.9-.223 2.344.893 2.9.893 2.9s-.67-2.344.558-3.572 4.13-.558 4.13-.558a4.42 4.42 0 0 0-2.295-.672zm-9.089.114a5.18 5.18 0 0 0-.558 3.013c.223 1.674 1.116 2.344 1.116 2.121s-1.339-2.9-.558-5.134zm-.558 8.482a3.86 3.86 0 0 0-.335 2.455c.223 1.563.893 1.9.893 1.9s-1-3.125-.558-4.353zm8.552.042c-1.13-.042-2.358.237-2.748 1.521-.781 2.567 1 3.125 1 3.125-.415-.868-.532-1.848-.335-2.79.335-1.562 4.241-1.451 4.241-1.451a8.31 8.31 0 0 0-2.162-.4zm-2.19 6.766a2 2 0 0 0-2.121 1.786 2.44 2.44 0 0 0 2.121 2.679 2.13 2.13 0 0 1-1.339-1.786c-.223-1.451 1.451-2.344 2.79-2.344z" fill="#4e2705"/><path d="M91.42 280.738a22.35 22.35 0 0 0 2.718-7.631c0 0 4.557-1.4 5.837.748a46.71 46.71 0 0 0 5.016 6.883zm10.595-7.4a41.4 41.4 0 0 0 5.979 7.4h4.735a72.51 72.51 0 0 1-6.083-9.634c0 0-.721 1.285-4.631 2.229z" fill="#734215"/><g transform="matrix(-1 0 0 -1 250.61 286.55)"><path d="M5.158 54.221l-2.894 146.8s19.888-40.092 27.149-58.4 5.051-37.882 2.21-51.773-8.573-29.395-9.471-41.039z" fill="#7bb1c7"/><path d="M29.677 4.59H3.001c1.797 3.282 2.975 6.867 3.473 10.575l1.736 4.631 12.785-.158 2.306-5.187a87.56 87.56 0 0 1 6.375-9.861z" fill="#4e2705"/><path d="M12.494 53.635l-2.1 97.318s9.945-15.639 13.807-25.377 3.175-22.822 1.175-32.585-5.875-24.763-6.227-41.088z" fill="#38699e"/><path d="M72.189 0v32.144s-14.733-1.563-27.68 3.572c0 0-4.241 4.688-8.706 10.491s-5.914 5.7-10.748 6.762c-3.76.825-11.164 2.114-13.532 2.588a7.915 7.915 0 0 1-4.42-.474s-3.946-.631-5.367-.631a.988.988 0 0 1-.789-1.736A4.118 4.118 0 0 1 3 48.928a5.28 5.28 0 0 1-2.684-4.262 7.1 7.1 0 0 1 1.578-5.209A5.944 5.944 0 0 1 0 34.722a6.149 6.149 0 0 1 2.21-4.893 6.561 6.561 0 0 1-1.1-4.262A4.356 4.356 0 0 1 3 21.937a6.448 6.448 0 0 1 0-4.1c.789-1.894 1.578-2.368 3.473-2.683s3.63.474 7.1 0a6.324 6.324 0 0 1 6.827 3.411s1.228-1.9 2.9-4.13c0 0 5.246-.223 8.371 0a9.57 9.57 0 0 1 4.859 1.555 86.54 86.54 0 0 0 16.908-6.466L72.189 0z" fill="#734215"/><path d="M8.158 53.763s-1.046-.965-4.13-1a8.47 8.47 0 0 0-3.376.509c.048-.207.149-.397.293-.553 0 0 .851-.518 3.753-.63s3.46 1.674 3.46 1.674zm-6.976-2.156l-.137-.032a4.39 4.39 0 0 1 1.951-2.648 19.27 19.27 0 0 1 9.043-.793c2.588-.888 5.34-1.191 8.059-.888a20.54 20.54 0 0 0-7.659 2.7c-3.764-1.62-8.121-.977-11.257 1.661zm19.578-5.15c1.327-1.024 1.984-2.694 1.711-4.348-.151-2.2-3.04-2.392-5.018-2.3-2.06.136-4.126.148-6.187.037-3.464-.512-6.682-.057-8.5.963a6.7 6.7 0 0 0-2.412 2.248 7.19 7.19 0 0 1 1.537-3.6c3.102-.687 6.281-.956 9.454-.8a39.2 39.2 0 0 0 6.355.167c1.306-.198 2.528-.766 3.523-1.635a5.39 5.39 0 0 0 1.846-1.855 4.21 4.21 0 0 0 .035-3.339 2.99 2.99 0 0 0-1.986-1.432c-1.236-.016-2.472.046-3.7.186a28.81 28.81 0 0 1-6.678-.221c-3.914-.963-8.018-.217-10.395 2.026a5.82 5.82 0 0 1 1.862-2.727 19.63 19.63 0 0 1 8.724-.481c2.12.318 4.27.388 6.406.209l2.755-.179a6.32 6.32 0 0 0 2.353-2.523 3.94 3.94 0 0 0 .386-2.469 1.81 1.81 0 0 0-1.518-1.6c-.883-.125-1.777-.163-2.668-.114-1.429.013-3.163.053-5-.028-2.078-.2-6.636-.511-9.873.7-1.05.461-1.964 1.184-2.655 2.1a4.35 4.35 0 0 1 1.876-3.5c0 0 7.036-.652 10.705-.493 1.792.076 3.5.051 4.939.037.292 0 .419.026.686.026 1.341-2.331-1.7-4.625-2.972-5.225s-3.334.184-4.518.263-1.971 1.656-1.971 1.656c-.297-.473-.355-1.057-.158-1.579a11.87 11.87 0 0 0-6.776 1.425c.025-.072.038-.145.067-.216.79-1.894 1.58-2.368 3.474-2.683s3.629.474 7.1 0c2.784-.517 5.572.878 6.827 3.416 0 0 1.228-1.9 2.9-4.13 0 0 5.246-.223 8.371 0a9.57 9.57 0 0 1 4.857 1.556s2.016-.5 5.078-1.525c-3.068 3.941-1.625 7.032-1.751 9.819 7.236-2.225 19.277-9.626 29.585-10.262-9.228 2.519-26.691 10.981-28.646 11.882s-4.034 4.193-5.986 4.437a8.89 8.89 0 0 0 2.151-4.673c.159-2.623-1.568-5.58-2.914-7.1-2.617-2.97-8.286-3.353-10.407-1.121-1.186 1.086-1.926 2.574-2.076 4.175 1.256.265 2.224 1.267 2.444 2.532.211 1.12.028 2.279-.519 3.279-.472.854-1.17 1.562-2.018 2.046a3.01 3.01 0 0 1 2.7 1.37c1.349-1.276 5.629-2.951 7.194-1.386-3.133.2-5.62.4-7.078 3.062.219 3.715-1.4 4.987-2.4 5.655-.363.228-.741.431-1.132.607 1.8-.062 2.749 2 2.76 3.4s-.969 3.952-2.748 4.269zm-2.886-.3c-1.475-.049-3.313-.486-3.8-1.881-.529-1.123-.306-2.457.558-3.348 0 0-.335 3.237 1.674 4.13s4.911-.446 4.911-.446a5.82 5.82 0 0 1-1.451 1.339c-.612.186-1.253.256-1.89.207zm-8.266-.319a4.04 4.04 0 0 1-.892-3.011c.223-1.786 1.116-2.232 1.116-2.232s-1.005 3.232-.223 5.243zm9.313-9.373c-1.524.072-3.146-.435-3.286-1.9-.223-2.344.893-2.9.893-2.9s-.67 2.344.558 3.572 4.13.558 4.13.558a4.42 4.42 0 0 1-2.295.672zm-9.089-.114a5.18 5.18 0 0 1-.558-3.013c.223-1.674 1.116-2.344 1.116-2.121s-1.339 2.9-.558 5.134zm-.558-8.482a3.86 3.86 0 0 1-.335-2.455c.223-1.563.893-1.9.893-1.9s-1 3.125-.558 4.353zm8.552-.042c-1.13.042-2.358-.237-2.748-1.521-.781-2.567 1-3.125 1-3.125-.415.868-.532 1.848-.335 2.79.335 1.563 4.241 1.451 4.241 1.451a8.31 8.31 0 0 1-2.162.4zm-2.19-6.766a2 2 0 0 1-2.121-1.786 2.44 2.44 0 0 1 2.121-2.678 2.13 2.13 0 0 0-1.339 1.786c-.224 1.45 1.448 2.344 2.79 2.344z" fill="#4e2705"/><path d="M5.365 5.804a22.35 22.35 0 0 1 2.718 7.632c0 0 4.557 1.4 5.837-.748a46.71 46.71 0 0 1 5.011-6.884zm10.595 7.4a41.4 41.4 0 0 1 5.979-7.4h4.735a72.51 72.51 0 0 0-6.083 9.634c0 0-.72-1.285-4.626-2.229z" fill="#734215"/></g></svg>